<svg xmlns="http://www.w3.org/2000/svg" version="1.1" xmlns:xlink="http://www.w3.org/1999/xlink" xmlns:svgjs="http://svgjs.dev/svgjs" width="1000" height="1000"><g clip-path="url(#SvgjsClipPath1149)"><rect width="1000" height="1000" fill="#0f172a"></rect><g transform="matrix(1.1299435028248588,0,0,1.1299435028248588,200,200)"><svg xmlns="http://www.w3.org/2000/svg" version="1.1" xmlns:xlink="http://www.w3.org/1999/xlink" xmlns:svgjs="http://svgjs.dev/svgjs" width="531" height="531"><svg width="531" height="531" viewBox="0 0 531 531" fill="none" xmlns="http://www.w3.org/2000/svg">
<rect width="531" height="531" fill="#0F172A"></rect>
<path d="M111 190.713C111 114.656 172.656 53 248.713 53V53C254.947 53 260 58.0532 260 64.2867V373.5C260 414.645 226.645 448 185.5 448H140.921C124.396 448 111 434.604 111 418.079L111 190.713Z" fill="white"></path>
<path d="M419 190.713C419 114.656 357.344 53 281.287 53V53C275.053 53 270 58.0532 270 64.2867V373.5C270 414.645 303.355 448 344.5 448H389.079C405.604 448 419 434.604 419 418.079V190.713Z" fill="white"></path>
</svg></svg></g></g><defs><clipPath id="SvgjsClipPath1149"><rect width="1000" height="1000" x="0" y="0" rx="500" ry="500"></rect></clipPath></defs></svg>